<svg width="34" height="34" viewBox="0 0 34 34" fill="none" xmlns="http://www.w3.org/2000/svg">
<path d="M10.625 4.25H23.3807C26.8982 4.25 29.75 7.10175 29.75 10.6193V23.3821C29.75 26.8982 26.8982 29.75 23.3807 29.75H10.6193C7.10175 29.75 4.25 26.8982 4.25 23.3807V10.625C4.25 7.10458 7.10458 4.25 10.625 4.25V4.25Z" stroke="#B6B5B5" stroke-width="1.5" stroke-linecap="round" stroke-linejoin="round"/>
<path d="M15.1356 13.6624H16.8569V22.27H16.854C15.0818 22.27 13.1339 21.1934 11.7526 19.21C9.6786 16.303 9.11194 14.1058 9.11194 13.6638" stroke="#B6B5B5" stroke-width="1.5" stroke-linecap="round" stroke-linejoin="round"/>
<path d="M23.5987 22.2699C23.5987 22.2699 22.9726 20.9496 21.7018 19.4975C20.8547 18.5044 19.6618 17.9675 18.5767 17.9675C19.6618 17.9675 20.8547 17.4292 21.7018 16.4375C22.9726 14.984 23.5987 13.6637 23.5987 13.6637" stroke="#B6B5B5" stroke-width="1.5" stroke-linecap="round" stroke-linejoin="round"/>
<path d="M18.5768 17.969H16.8541" stroke="#B6B5B5" stroke-width="1.5" stroke-linecap="round" stroke-linejoin="round"/>
</svg>
